<svg xmlns="http://www.w3.org/2000/svg" xmlns:xlink="http://www.w3.org/1999/xlink" width="141px" height="24px" viewBox="0 0 141 24"><title>logo-dark</title><g id="Homes" stroke="none" stroke-width="1" fill="none" fill-rule="evenodd"><g id="logo-dark" transform="translate(0.618240, 0.956808)" fill="#111010" fill-rule="nonzero"><g id="Group-6"><path d="M0,21.50944 C0.94976,21.13312 1.66656,20.90912 2.1504,20.83744 L2.1504,4.2256 C1.54112,4.11808 0.82432,3.92992 0,3.66112 L0,3.1504 L8.76288,3.1504 C11.1104,3.1504 12.7904,3.51328 13.80288,4.23904 C14.81536,4.9648 15.3216,6.0624 15.3216,7.53184 C15.3216,8.53536 15.0304,9.44032 14.448,10.24672 C13.8656,11.05312 13.00992,11.6176 11.88096,11.94016 L11.88096,12.10144 C13.33248,12.40608 14.39872,12.99744 15.07968,13.87552 C15.76064,14.7536 16.10112,15.71232 16.10112,16.75168 C16.10112,18.48992 15.59488,19.7936 14.5824,20.66272 C13.56992,21.53184 11.90784,21.9664 9.59616,21.9664 L0,21.9664 L0,21.50944 Z M8.09088,11.42944 C9.07648,11.42944 9.82016,11.1024 10.32192,10.44832 C10.82368,9.79424 11.07456,8.90272 11.07456,7.77376 C11.07456,6.62688 10.85056,5.7936 10.40256,5.27392 C9.95456,4.75424 9.21984,4.4944 8.1984,4.4944 L6.37056,4.4944 L6.37056,11.42944 L8.09088,11.42944 Z M9.03168,20.64928 C10.94912,20.64928 11.90784,19.29632 11.90784,16.5904 C11.90784,15.336 11.63008,14.38176 11.07456,13.72768 C10.51904,13.0736 9.7216,12.74656 8.68224,12.74656 L6.37056,12.74656 L6.37056,20.64928 L9.03168,20.64928 Z M25.10592,22.2352 C22.5792,22.2352 20.63936,21.6304 19.2864,20.4208 C17.93344,19.2112 17.25696,17.50432 17.25696,15.30016 C17.25696,13.096 17.93344,11.38464 19.2864,10.16608 C20.63936,8.94752 22.5792,8.33824 25.10592,8.33824 C27.61472,8.33824 29.5456,8.94752 30.89856,10.16608 C32.25152,11.38464 32.928,13.096 32.928,15.30016 C32.928,17.50432 32.256,19.2112 30.912,20.4208 C29.568,21.6304 27.63264,22.2352 25.10592,22.2352 Z M25.10592,20.91808 C26.23488,20.91808 27.13088,20.41632 27.79392,19.4128 C28.45696,18.40928 28.78848,17.0384 28.78848,15.30016 C28.78848,13.544 28.45696,12.16416 27.79392,11.16064 C27.13088,10.15712 26.23488,9.65536 25.10592,9.65536 C23.97696,9.65536 23.07648,10.15712 22.40448,11.16064 C21.73248,12.16416 21.39648,13.544 21.39648,15.30016 C21.39648,17.05632 21.73248,18.43168 22.40448,19.42624 C23.07648,20.4208 23.97696,20.91808 25.10592,20.91808 Z M49.728,20.91808 C50.2656,21.00768 50.88384,21.16896 51.58272,21.40192 L51.58272,21.72448 L45.64224,22.28896 L45.64224,20.78368 C45.01504,21.21376 44.31168,21.5632 43.53216,21.832 C42.75264,22.1008 41.95968,22.2352 41.15328,22.2352 C39.48672,22.2352 38.17408,21.90816 37.21536,21.25408 C36.25664,20.6 35.77728,19.6816 35.77728,18.49888 L35.77728,9.68224 C35.168,9.57472 34.55872,9.40448 33.94944,9.17152 L33.94944,8.87584 L39.86304,8.28448 L39.86304,18.23008 C39.86304,19.19776 40.0736,19.88768 40.49472,20.29984 C40.91584,20.712 41.50272,20.91808 42.25536,20.91808 C42.68544,20.91808 43.22304,20.78816 43.86816,20.52832 C44.51328,20.26848 45.10464,19.91456 45.64224,19.46656 L45.64224,9.68224 C45.0688,9.57472 44.46848,9.40448 43.84128,9.17152 L43.84128,8.87584 L49.728,8.28448 L49.728,20.91808 Z M60.37248,22.2352 C58.79552,22.2352 57.43808,21.94848 56.30016,21.37504 C55.16224,20.8016 54.29312,19.99072 53.6928,18.9424 C53.09248,17.89408 52.79232,16.68 52.79232,15.30016 C52.79232,13.83072 53.11488,12.57632 53.76,11.53696 C54.40512,10.4976 55.31008,9.70464 56.47488,9.15808 C57.63968,8.61152 58.99264,8.33824 60.53376,8.33824 C62.70208,8.33824 64.52992,8.96544 66.01728,10.21984 L65.77536,13.4992 L64.88832,13.4992 C64.7808,13.17664 64.6912,12.74656 64.61952,12.20896 C64.54784,11.67136 64.512,11.1696 64.512,10.70368 C63.56224,10.0048 62.57664,9.65536 61.5552,9.65536 C60.15744,9.65536 59.03744,10.13472 58.1952,11.09344 C57.35296,12.05216 56.93184,13.46336 56.93184,15.32704 C56.93184,16.88608 57.2992,18.22112 58.03392,19.33216 C58.76864,20.4432 59.87072,20.99872 61.34016,20.99872 C62.05696,20.99872 62.82752,20.8688 63.65184,20.60896 C64.47616,20.34912 65.17504,19.98624 65.74848,19.52032 L66.1248,20.46112 C65.51552,20.96288 64.70912,21.384 63.7056,21.72448 C62.70208,22.06496 61.59104,22.2352 60.37248,22.2352 Z M83.40864,20.94496 C84.03584,21.05248 84.74368,21.24064 85.53216,21.50944 L85.53216,21.9664 L77.4144,21.9664 L77.4144,21.50944 C78.23872,21.2048 78.87488,21.00768 79.32288,20.91808 L79.32288,12.2896 C79.32288,10.53344 78.54336,9.65536 76.98432,9.65536 C76.44672,9.65536 75.87328,9.80768 75.264,10.11232 C74.65472,10.41696 74.07232,10.9008 73.5168,11.56384 L73.5168,20.94496 C74.07232,21.03456 74.70848,21.22272 75.42528,21.50944 L75.42528,21.9664 L67.3344,21.9664 L67.3344,21.50944 C68.15872,21.18688 68.8576,20.98976 69.43104,20.91808 L69.43104,4.44064 C68.69632,4.27936 68.08704,4.10912 67.6032,3.92992 L67.6032,3.60736 L73.5168,3.04288 L73.5168,10.21984 C74.12608,9.6464 74.85184,9.18944 75.69408,8.84896 C76.53632,8.50848 77.45024,8.33824 78.43584,8.33824 C79.9232,8.33824 81.12384,8.67424 82.03776,9.34624 C82.95168,10.01824 83.40864,10.95456 83.40864,12.1552 L83.40864,20.94496 Z M101.01504,15.54208 L90.88128,15.54208 C90.91712,17.10112 91.29792,18.40032 92.02368,19.43968 C92.74944,20.47904 93.82912,20.99872 95.26272,20.99872 C95.99744,20.99872 96.80384,20.8688 97.68192,20.60896 C98.56,20.34912 99.31264,19.98624 99.93984,19.52032 L100.34304,20.46112 C99.73376,20.96288 98.896,21.384 97.82976,21.72448 C96.76352,22.06496 95.61216,22.2352 94.37568,22.2352 C92.79872,22.2352 91.4368,21.94848 90.28992,21.37504 C89.14304,20.8016 88.26496,19.99072 87.65568,18.9424 C87.0464,17.89408 86.74176,16.68 86.74176,15.30016 C86.74176,13.07808 87.4048,11.36224 88.73088,10.15264 C90.05696,8.94304 91.91168,8.33824 94.29504,8.33824 C95.7824,8.33824 97.03232,8.62944 98.0448,9.21184 C99.05728,9.79424 99.80544,10.56928 100.28928,11.53696 C100.77312,12.50464 101.01504,13.57984 101.01504,14.76256 L101.01504,15.54208 Z M97.44,14.22496 C97.44,13.56192 97.33696,12.87648 97.13088,12.16864 C96.9248,11.4608 96.5888,10.86496 96.12288,10.38112 C95.65696,9.89728 95.04768,9.65536 94.29504,9.65536 C93.30944,9.65536 92.5344,10.08544 91.96992,10.9456 C91.40544,11.80576 91.06048,12.89888 90.93504,14.22496 L97.44,14.22496 Z M102.2784,21.45568 C102.86976,21.22272 103.5776,21.04352 104.40192,20.91808 L104.40192,9.68224 C103.79264,9.57472 103.18336,9.40448 102.57408,9.17152 L102.57408,8.90272 L108.03072,8.28448 L108.38016,10.83808 L108.48768,10.83808 C108.82816,10.03168 109.32544,9.41344 109.97952,8.98336 C110.6336,8.55328 111.33696,8.33824 112.0896,8.33824 C112.66304,8.33824 113.17376,8.38752 113.62176,8.48608 C114.06976,8.58464 114.49984,8.76832 114.912,9.03712 L114.15936,10.97248 C113.63968,10.61408 113.09312,10.43488 112.51968,10.43488 C111.69536,10.43488 110.92928,10.6992 110.22144,11.22784 C109.5136,11.75648 108.93568,12.45088 108.48768,13.31104 L108.48768,20.94496 C109.1328,21.05248 109.83168,21.24064 110.58432,21.50944 L110.58432,21.9664 L102.2784,21.9664 L102.2784,21.45568 Z M119.77728,7.39744 C119.168,7.39744 118.67072,7.20928 118.28544,6.83296 C117.90016,6.45664 117.70752,5.9728 117.70752,5.38144 C117.70752,4.79008 117.90016,4.30176 118.28544,3.91648 C118.67072,3.5312 119.168,3.33856 119.77728,3.33856 C120.40448,3.33856 120.9152,3.5312 121.30944,3.91648 C121.70368,4.30176 121.9008,4.79008 121.9008,5.38144 C121.9008,5.9728 121.70368,6.45664 121.30944,6.83296 C120.9152,7.20928 120.40448,7.39744 119.77728,7.39744 Z M115.8528,21.50944 C116.3904,21.33024 117.08928,21.13312 117.94944,20.91808 L117.94944,9.76288 C117.39392,9.65536 116.78464,9.48512 116.1216,9.25216 L116.1216,8.95648 L122.06208,8.36512 L122.06208,20.94496 C122.7072,21.0704 123.40608,21.25856 124.15872,21.50944 L124.15872,21.9664 L115.8528,21.9664 L115.8528,21.50944 Z M139.72224,15.54208 L129.58848,15.54208 C129.62432,17.10112 130.00512,18.40032 130.73088,19.43968 C131.45664,20.47904 132.53632,20.99872 133.96992,20.99872 C134.70464,20.99872 135.51104,20.8688 136.38912,20.60896 C137.2672,20.34912 138.01984,19.98624 138.64704,19.52032 L139.05024,20.46112 C138.44096,20.96288 137.6032,21.384 136.53696,21.72448 C135.47072,22.06496 134.31936,22.2352 133.08288,22.2352 C131.50592,22.2352 130.144,21.94848 128.99712,21.37504 C127.85024,20.8016 126.97216,19.99072 126.36288,18.9424 C125.7536,17.89408 125.44896,16.68 125.44896,15.30016 C125.44896,13.07808 126.112,11.36224 127.43808,10.15264 C128.76416,8.94304 130.61888,8.33824 133.00224,8.33824 C134.4896,8.33824 135.73952,8.62944 136.752,9.21184 C137.76448,9.79424 138.51264,10.56928 138.99648,11.53696 C139.48032,12.50464 139.72224,13.57984 139.72224,14.76256 L139.72224,15.54208 Z M136.1472,14.22496 C136.1472,13.56192 136.04416,12.87648 135.83808,12.16864 C135.632,11.4608 135.296,10.86496 134.83008,10.38112 C134.36416,9.89728 133.75488,9.65536 133.00224,9.65536 C132.01664,9.65536 131.2416,10.08544 130.67712,10.9456 C130.11264,11.80576 129.76768,12.89888 129.64224,14.22496 L136.1472,14.22496 Z M90.06336,2.76864 C89.63328,2.51776 89.30624,2.25792 89.08224,1.98912 C88.85824,1.72032 88.74624,1.42464 88.74624,1.10208 C88.74624,0.79744 88.85824,0.5376 89.08224,0.32256 C89.30624,0.10752 89.61536,0 90.0096,0 C90.56512,0 91.13856,0.29568 91.72992,0.88704 L93.42336,2.63424 L95.03616,4.3008 L94.36416,5.26848 L90.06336,2.76864 Z" id="Combined-Shape"></path></g></g></g></svg>